<?xml version="1.0" encoding="utf-8"?>
<!-- Generator: Adobe Illustrator 23.0.3, SVG Export Plug-In . SVG Version: 6.00 Build 0)  -->
<svg version="1.1" id="Capa_1" xmlns="http://www.w3.org/2000/svg" xmlns:xlink="http://www.w3.org/1999/xlink" x="0px" y="0px"
	 viewBox="0 0 438.5 438.5" style="enable-background:new 0 0 438.5 438.5;" xml:space="preserve">
<style type="text/css">
	.st0{fill:#FFC10E;}
</style>
<g>
	<path class="st0" d="M409.1,109.2c-19.6-33.6-46.2-60.2-79.8-79.8C295.7,9.8,259.1,0,219.3,0c-39.8,0-76.5,9.8-110.1,29.4
		C75.6,49,49,75.6,29.4,109.2C9.8,142.8,0,179.5,0,219.3c0,39.8,9.8,76.5,29.4,110.1c19.6,33.6,46.2,60.2,79.8,79.8
		c33.6,19.6,70.3,29.4,110.1,29.4s76.5-9.8,110.1-29.4c33.6-19.6,60.2-46.2,79.8-79.8c19.6-33.6,29.4-70.3,29.4-110.1
		C438.5,179.5,428.7,142.8,409.1,109.2z M361.4,185.9l-155,155c-3.6,3.6-8,5.4-13.1,5.4c-4.9,0-9.2-1.8-12.8-5.4L77.1,237.5
		c-3.4-3.4-5.1-7.7-5.1-12.8c0-5.3,1.7-9.7,5.1-13.1l26-25.7c3.6-3.6,7.9-5.4,12.8-5.4s9.2,1.8,12.9,5.4l64.5,64.5l116.5-116.2
		c3.6-3.6,7.9-5.4,12.8-5.4c4.9,0,9.2,1.8,12.8,5.4l26,25.7c3.4,3.4,5.1,7.8,5.1,13.1C366.6,178.2,364.9,182.4,361.4,185.9z"/>
</g>
</svg>
