<svg width="108" height="107" viewBox="0 0 108 107" fill="none" xmlns="http://www.w3.org/2000/svg">
<path fill-rule="evenodd" clip-rule="evenodd" d="M106.58 53.5C106.58 58.0652 101.519 61.763 100.379 65.9174C99.2389 70.0717 101.701 76.0065 99.558 79.613C97.4151 83.2196 91.0773 84.1783 87.9769 87.237C84.8764 90.2957 84.1469 96.5957 80.3625 98.8326C76.5781 101.07 70.8331 98.513 66.684 99.6544C62.5348 100.796 58.7048 106 54.1453 106C49.5858 106 45.8926 100.933 41.7434 99.7913C37.5943 98.65 31.6669 101.115 28.0649 98.9696C24.4629 96.8239 23.5054 90.4783 20.4505 87.3739C17.3957 84.2696 10.9211 83.5848 8.5502 79.75C6.17926 75.9152 8.86937 70.2087 7.72949 66.0544C6.58961 61.9 1.71094 58.0652 1.71094 53.5C1.71094 48.9348 6.77199 45.237 7.91187 41.0826C9.05175 36.9283 6.58961 30.9935 8.73258 27.387C10.8756 23.7804 17.2133 22.8217 20.3137 19.763C23.4142 16.7043 24.0981 10.2217 27.9281 7.84783C31.7581 5.47391 37.4575 8.16739 41.6067 7.02609C45.7558 5.88478 49.5858 1 54.1453 1C58.7048 1 62.398 6.06739 66.5472 7.2087C70.6963 8.35 76.6237 5.88478 80.2257 8.03043C83.8277 10.1761 84.7852 16.5217 87.8401 19.6261C90.895 22.7304 97.1871 23.4609 99.4212 27.25C101.655 31.0391 99.1021 36.7913 100.242 40.9457C101.382 45.1 106.58 48.9348 106.58 53.5Z" fill="#D52917" stroke="#AA1D0E" stroke-width="2" stroke-linecap="round" stroke-linejoin="round"/>
<path d="M29.0977 48.6445C29.0977 49.8867 28.6484 50.8867 27.75 51.6445C26.8516 52.3945 25.5938 52.8438 23.9766 52.9922V55.3945H22.3711V53.0391C20.4648 53 18.793 52.6641 17.3555 52.0312V48.9375C18.0352 49.2734 18.8516 49.5703 19.8047 49.8281C20.7656 50.0859 21.6211 50.2383 22.3711 50.2852V46.6523L21.5859 46.3477C20.0391 45.7383 18.9414 45.0781 18.293 44.3672C17.6523 43.6484 17.332 42.7617 17.332 41.707C17.332 40.5742 17.7734 39.6445 18.6562 38.918C19.5469 38.1836 20.7852 37.7383 22.3711 37.582V35.7891H23.9766V37.5352C25.7656 37.6133 27.3828 37.9727 28.8281 38.6133L27.7266 41.3555C26.5078 40.8555 25.2578 40.5508 23.9766 40.4414V43.8984C25.5 44.4844 26.582 44.9922 27.2227 45.4219C27.8711 45.8516 28.3438 46.3242 28.6406 46.8398C28.9453 47.3555 29.0977 47.957 29.0977 48.6445ZM25.5703 48.8203C25.5703 48.4922 25.4375 48.2148 25.1719 47.9883C24.9062 47.7617 24.5078 47.5273 23.9766 47.2852V50.2031C25.0391 50.0234 25.5703 49.5625 25.5703 48.8203ZM20.8594 41.707C20.8594 42.0508 20.9766 42.3359 21.2109 42.5625C21.4531 42.7812 21.8398 43.0078 22.3711 43.2422V40.4883C21.3633 40.6367 20.8594 41.043 20.8594 41.707ZM39.9258 54H36.3047V44.0859L36.3398 42.457L36.3984 40.6758C35.7969 41.2773 35.3789 41.6719 35.1445 41.8594L33.1758 43.4414L31.4297 41.2617L36.9492 36.8672H39.9258V54ZM57.0469 50.4492H54.9844V54H51.4453V50.4492H44.1328V47.9297L51.6445 36.8672H54.9844V47.6367H57.0469V50.4492ZM51.4453 47.6367V44.7305C51.4453 44.2461 51.4648 43.543 51.5039 42.6211C51.543 41.6992 51.5742 41.1641 51.5977 41.0156H51.5039C51.2148 41.6562 50.8672 42.2812 50.4609 42.8906L47.3203 47.6367H51.4453ZM58.8047 52.3242C58.8047 51.668 58.9805 51.1719 59.332 50.8359C59.6836 50.5 60.1953 50.332 60.8672 50.332C61.5156 50.332 62.0156 50.5039 62.3672 50.8477C62.7266 51.1914 62.9062 51.6836 62.9062 52.3242C62.9062 52.9414 62.7266 53.4297 62.3672 53.7891C62.0078 54.1406 61.5078 54.3164 60.8672 54.3164C60.2109 54.3164 59.7031 54.1445 59.3438 53.8008C58.9844 53.4492 58.8047 52.957 58.8047 52.3242ZM77.1445 44.1797C77.1445 47.5547 76.4336 50.0742 75.0117 51.7383C73.5898 53.4023 71.4375 54.2344 68.5547 54.2344C67.5391 54.2344 66.7695 54.1797 66.2461 54.0703V51.1641C66.9023 51.3281 67.5898 51.4102 68.3086 51.4102C69.5195 51.4102 70.5156 51.2344 71.2969 50.8828C72.0781 50.5234 72.6758 49.9648 73.0898 49.207C73.5039 48.4414 73.7422 47.3906 73.8047 46.0547H73.6641C73.2109 46.7891 72.6875 47.3047 72.0938 47.6016C71.5 47.8984 70.7578 48.0469 69.8672 48.0469C68.375 48.0469 67.1992 47.5703 66.3398 46.6172C65.4805 45.6562 65.0508 44.3242 65.0508 42.6211C65.0508 40.7852 65.5703 39.3359 66.6094 38.2734C67.6562 37.2031 69.0781 36.668 70.875 36.668C72.1406 36.668 73.2461 36.9648 74.1914 37.5586C75.1445 38.1523 75.875 39.0156 76.3828 40.1484C76.8906 41.2734 77.1445 42.6172 77.1445 44.1797ZM70.9453 39.5742C70.1953 39.5742 69.6094 39.832 69.1875 40.3477C68.7656 40.8633 68.5547 41.6055 68.5547 42.5742C68.5547 43.4023 68.7461 44.0586 69.1289 44.543C69.5117 45.0273 70.0938 45.2695 70.875 45.2695C71.6094 45.2695 72.2383 45.0312 72.7617 44.5547C73.2852 44.0703 73.5469 43.5156 73.5469 42.8906C73.5469 41.9609 73.3008 41.1758 72.8086 40.5352C72.3242 39.8945 71.7031 39.5742 70.9453 39.5742ZM90.8555 44.1797C90.8555 47.5547 90.1445 50.0742 88.7227 51.7383C87.3008 53.4023 85.1484 54.2344 82.2656 54.2344C81.25 54.2344 80.4805 54.1797 79.957 54.0703V51.1641C80.6133 51.3281 81.3008 51.4102 82.0195 51.4102C83.2305 51.4102 84.2266 51.2344 85.0078 50.8828C85.7891 50.5234 86.3867 49.9648 86.8008 49.207C87.2148 48.4414 87.4531 47.3906 87.5156 46.0547H87.375C86.9219 46.7891 86.3984 47.3047 85.8047 47.6016C85.2109 47.8984 84.4688 48.0469 83.5781 48.0469C82.0859 48.0469 80.9102 47.5703 80.0508 46.6172C79.1914 45.6562 78.7617 44.3242 78.7617 42.6211C78.7617 40.7852 79.2812 39.3359 80.3203 38.2734C81.3672 37.2031 82.7891 36.668 84.5859 36.668C85.8516 36.668 86.957 36.9648 87.9023 37.5586C88.8555 38.1523 89.5859 39.0156 90.0938 40.1484C90.6016 41.2734 90.8555 42.6172 90.8555 44.1797ZM84.6562 39.5742C83.9062 39.5742 83.3203 39.832 82.8984 40.3477C82.4766 40.8633 82.2656 41.6055 82.2656 42.5742C82.2656 43.4023 82.457 44.0586 82.8398 44.543C83.2227 45.0273 83.8047 45.2695 84.5859 45.2695C85.3203 45.2695 85.9492 45.0312 86.4727 44.5547C86.9961 44.0703 87.2578 43.5156 87.2578 42.8906C87.2578 41.9609 87.0117 41.1758 86.5195 40.5352C86.0352 39.8945 85.4141 39.5742 84.6562 39.5742Z" fill="white"/>
<path d="M36.6719 63.5781H39.1172L35.2344 75H32.5938L28.7188 63.5781H31.1641L33.3125 70.375C33.4323 70.776 33.5547 71.2448 33.6797 71.7812C33.8099 72.3125 33.8906 72.6823 33.9219 72.8906C33.9792 72.4115 34.1745 71.5729 34.5078 70.375L36.6719 63.5781ZM47.5547 75L46.7266 72.2812H42.5625L41.7344 75H39.125L43.1562 63.5312H46.1172L50.1641 75H47.5547ZM46.1484 70.25C45.3828 67.7865 44.9505 66.3932 44.8516 66.0703C44.7578 65.7474 44.6901 65.4922 44.6484 65.3047C44.4766 65.9714 43.9844 67.6198 43.1719 70.25H46.1484ZM51.6094 75V63.5781H54.0312V73H58.6641V75H51.6094ZM69.9531 63.5781V70.9688C69.9531 71.8125 69.763 72.5521 69.3828 73.1875C69.0078 73.8229 68.4635 74.3099 67.75 74.6484C67.0365 74.987 66.1927 75.1562 65.2188 75.1562C63.75 75.1562 62.6094 74.7812 61.7969 74.0312C60.9844 73.276 60.5781 72.2448 60.5781 70.9375V63.5781H62.9922V70.5703C62.9922 71.4505 63.1693 72.0964 63.5234 72.5078C63.8776 72.9193 64.4635 73.125 65.2812 73.125C66.0729 73.125 66.6458 72.9193 67 72.5078C67.3594 72.0911 67.5391 71.4401 67.5391 70.5547V63.5781H69.9531ZM79.3281 75H72.75V63.5781H79.3281V65.5625H75.1719V68.0703H79.0391V70.0547H75.1719V73H79.3281V75Z" fill="white"/>
</svg>
