<svg width="108" height="107" viewBox="0 0 108 107" fill="none" xmlns="http://www.w3.org/2000/svg">
<path fill-rule="evenodd" clip-rule="evenodd" d="M106.58 53.5C106.58 58.0652 101.519 61.763 100.379 65.9174C99.2389 70.0717 101.701 76.0065 99.558 79.613C97.4151 83.2196 91.0773 84.1783 87.9769 87.237C84.8764 90.2957 84.1469 96.5957 80.3625 98.8326C76.5781 101.07 70.8331 98.513 66.684 99.6544C62.5348 100.796 58.7048 106 54.1453 106C49.5858 106 45.8926 100.933 41.7434 99.7913C37.5943 98.65 31.6669 101.115 28.0649 98.9696C24.4629 96.8239 23.5054 90.4783 20.4505 87.3739C17.3957 84.2696 10.9211 83.5848 8.5502 79.75C6.17926 75.9152 8.86937 70.2087 7.72949 66.0544C6.58961 61.9 1.71094 58.0652 1.71094 53.5C1.71094 48.9348 6.77199 45.237 7.91187 41.0826C9.05175 36.9283 6.58961 30.9935 8.73258 27.387C10.8756 23.7804 17.2133 22.8217 20.3137 19.763C23.4142 16.7043 24.0981 10.2217 27.9281 7.84783C31.7581 5.47391 37.4575 8.16739 41.6067 7.02609C45.7558 5.88478 49.5858 1 54.1453 1C58.7048 1 62.398 6.06739 66.5472 7.2087C70.6963 8.35 76.6237 5.88478 80.2257 8.03043C83.8277 10.1761 84.7852 16.5217 87.8401 19.6261C90.895 22.7304 97.1871 23.4609 99.4212 27.25C101.655 31.0391 99.1021 36.7913 100.242 40.9457C101.382 45.1 106.58 48.9348 106.58 53.5Z" fill="#D52917" stroke="#AA1D0E" stroke-width="2" stroke-linecap="round" stroke-linejoin="round"/>
<path d="M44.2881 46.3057C44.2881 47.8584 43.7266 49.1084 42.6035 50.0557C41.4805 50.9932 39.9082 51.5547 37.8867 51.7402V54.7432H35.8799V51.7988C33.4971 51.75 31.4072 51.3301 29.6104 50.5391V46.6719C30.46 47.0918 31.4805 47.4629 32.6719 47.7852C33.873 48.1074 34.9424 48.2979 35.8799 48.3564V43.8154L34.8984 43.4346C32.9648 42.6729 31.5928 41.8477 30.7822 40.959C29.9814 40.0605 29.5811 38.9521 29.5811 37.6338C29.5811 36.2178 30.1328 35.0557 31.2363 34.1475C32.3496 33.2295 33.8975 32.6729 35.8799 32.4775V30.2363H37.8867V32.4189C40.123 32.5166 42.1445 32.9658 43.9512 33.7666L42.5742 37.1943C41.0508 36.5693 39.4883 36.1885 37.8867 36.0518V40.373C39.791 41.1055 41.1436 41.7402 41.9443 42.2773C42.7549 42.8145 43.3457 43.4053 43.7168 44.0498C44.0977 44.6943 44.2881 45.4463 44.2881 46.3057ZM39.8789 46.5254C39.8789 46.1152 39.7129 45.7686 39.3809 45.4854C39.0488 45.2021 38.5508 44.9092 37.8867 44.6064V48.2539C39.2148 48.0293 39.8789 47.4531 39.8789 46.5254ZM33.9902 37.6338C33.9902 38.0635 34.1367 38.4199 34.4297 38.7031C34.7324 38.9766 35.2158 39.2598 35.8799 39.5527V36.1104C34.6201 36.2959 33.9902 36.8037 33.9902 37.6338ZM54.4248 39.3184C56.4951 39.3184 58.1406 39.8994 59.3613 41.0615C60.5918 42.2236 61.207 43.8154 61.207 45.8369C61.207 48.2295 60.4697 50.0703 58.9951 51.3594C57.5205 52.6484 55.4111 53.293 52.667 53.293C50.2842 53.293 48.3604 52.9072 46.8955 52.1357V48.2246C47.667 48.6348 48.5654 48.9717 49.5908 49.2354C50.6162 49.4893 51.5879 49.6162 52.5059 49.6162C55.2695 49.6162 56.6514 48.4834 56.6514 46.2178C56.6514 44.0596 55.2207 42.9805 52.3594 42.9805C51.8418 42.9805 51.2705 43.0342 50.6455 43.1416C50.0205 43.2393 49.5127 43.3467 49.1221 43.4639L47.3203 42.4971L48.126 31.584H59.7422V35.4219H52.0957L51.7002 39.626L52.2129 39.5234C52.8086 39.3867 53.5459 39.3184 54.4248 39.3184ZM78.6533 40.7246C78.6533 44.9434 77.7646 48.0928 75.9873 50.1729C74.21 52.2529 71.5195 53.293 67.916 53.293C66.6465 53.293 65.6846 53.2246 65.0303 53.0879V49.4551C65.8506 49.6602 66.71 49.7627 67.6084 49.7627C69.1221 49.7627 70.3672 49.543 71.3438 49.1035C72.3203 48.6543 73.0674 47.9561 73.585 47.0088C74.1025 46.0518 74.4004 44.7383 74.4785 43.0684H74.3027C73.7363 43.9863 73.082 44.6309 72.3398 45.002C71.5977 45.373 70.6699 45.5586 69.5566 45.5586C67.6914 45.5586 66.2217 44.9629 65.1475 43.7715C64.0732 42.5703 63.5361 40.9053 63.5361 38.7764C63.5361 36.4814 64.1855 34.6699 65.4844 33.3418C66.793 32.0039 68.5703 31.335 70.8164 31.335C72.3984 31.335 73.7803 31.7061 74.9619 32.4482C76.1533 33.1904 77.0664 34.2695 77.7012 35.6855C78.3359 37.0918 78.6533 38.7715 78.6533 40.7246ZM70.9043 34.9678C69.9668 34.9678 69.2344 35.29 68.707 35.9346C68.1797 36.5791 67.916 37.5068 67.916 38.7178C67.916 39.7529 68.1553 40.5732 68.6338 41.1787C69.1123 41.7842 69.8398 42.0869 70.8164 42.0869C71.7344 42.0869 72.5205 41.7891 73.1748 41.1934C73.8291 40.5879 74.1562 39.8945 74.1562 39.1133C74.1562 37.9512 73.8486 36.9697 73.2334 36.1689C72.6279 35.3682 71.8516 34.9678 70.9043 34.9678Z" fill="white"/>
<path d="M36.6719 66.5781H39.1172L35.2344 78H32.5938L28.7188 66.5781H31.1641L33.3125 73.375C33.4323 73.776 33.5547 74.2448 33.6797 74.7812C33.8099 75.3125 33.8906 75.6823 33.9219 75.8906C33.9792 75.4115 34.1745 74.5729 34.5078 73.375L36.6719 66.5781ZM47.5547 78L46.7266 75.2812H42.5625L41.7344 78H39.125L43.1562 66.5312H46.1172L50.1641 78H47.5547ZM46.1484 73.25C45.3828 70.7865 44.9505 69.3932 44.8516 69.0703C44.7578 68.7474 44.6901 68.4922 44.6484 68.3047C44.4766 68.9714 43.9844 70.6198 43.1719 73.25H46.1484ZM51.6094 78V66.5781H54.0312V76H58.6641V78H51.6094ZM69.9531 66.5781V73.9688C69.9531 74.8125 69.763 75.5521 69.3828 76.1875C69.0078 76.8229 68.4635 77.3099 67.75 77.6484C67.0365 77.987 66.1927 78.1562 65.2188 78.1562C63.75 78.1562 62.6094 77.7812 61.7969 77.0312C60.9844 76.276 60.5781 75.2448 60.5781 73.9375V66.5781H62.9922V73.5703C62.9922 74.4505 63.1693 75.0964 63.5234 75.5078C63.8776 75.9193 64.4635 76.125 65.2812 76.125C66.0729 76.125 66.6458 75.9193 67 75.5078C67.3594 75.0911 67.5391 74.4401 67.5391 73.5547V66.5781H69.9531ZM79.3281 78H72.75V66.5781H79.3281V68.5625H75.1719V71.0703H79.0391V73.0547H75.1719V76H79.3281V78Z" fill="white"/>
</svg>
